<svg width="381" height="280" viewBox="0 0 381 280" fill="none" xmlns="http://www.w3.org/2000/svg">
<path d="M188.5 187L175 184L175.5 180L188 163.5L196.5 153.5L218 136.5C217.667 135 217 130.9 217 126.5C217 122.1 218.333 118 219 116.5L241.5 111.5L253.5 110H266L272.5 117.5L275 135C300 145 309 172.5 314.5 178C318.9 182.4 324.667 207.833 327 220C329.167 226.333 331.1 241.5 321.5 251.5C311.9 261.5 286.5 264 275 264C275.5 263.5 276 262.4 274 262C272 261.6 264.167 257.5 260.5 255.5L276.5 244.5C279 229 269.5 229 256 227.5C245.2 226.3 225.5 245.667 217 255.5L203 252.5L188.5 187Z" fill="#F8F1E7" stroke="#F8F1E7"/>
<path d="M90 266L70 176.5L190 187L207.5 280L90 266Z" fill="#D9D9D9"/>
<path d="M24.6154 257.901L22 231.602C22.8718 231.602 25.0338 231.208 26.7077 229.63C28.8 227.657 32.9846 228.972 39.7846 229.63C45.2246 230.156 52.8615 228.096 56 227L52.8615 257.901C39.4708 268.947 28.4513 262.503 24.6154 257.901Z" fill="#7C6040" stroke="#7C6040"/>
<path d="M193.5 61.4998C190.3 67.0998 184.5 68.4998 182 68.4998V60V51.9998C182 49.9996 183.667 46.4998 184.5 45L188 33.5L193.5 26C195.833 23.3333 201 17.5 203 15.5C205 13.5 217.167 9 223 7L231.5 4L241 2.5L260 5L270.5 10.5L282 18L289 25.5L296.5 38L301 57L300 84.5L298 107C296.4 115.8 301.667 129 304.5 134.5C307.333 137.833 312.5 144.7 310.5 145.5C308.5 146.3 295.333 145.167 289 144.5L284 139.5C281.5 138.667 276.2 136.1 275 132.5C273.5 128 271.5 115 271.5 112.5C271.5 110 262 107.5 260.5 107C259 106.5 256 96.5 257.5 96C258.7 95.6 263.667 95.1667 266 95C272 95.5 283 84 279.5 75.5C276 67 267 67 265 67C263 67 252.5 68.4998 232.5 61.4998C212.5 54.4998 217.5 37.4998 215 39.9998C213 41.9998 204.5 48.8331 200.5 51.9998C199.5 52.8331 196.7 55.8998 193.5 61.4998Z" fill="#FFA675" stroke="#FFA675"/>
<path d="M180.499 141.5C187.299 140.3 187.333 109.333 186.499 94L185 91L190 92.5C195.167 96.5 206.3 104.5 209.5 104.5C212.7 104.5 225.5 107.167 231.5 108.5V113C228.333 114 221.4 116.4 219 118C216.6 119.6 218 130.333 219 135.5L211.999 141.5C198.666 142 173.699 142.7 180.499 141.5Z" fill="#FFA675" stroke="#FFA675" stroke-linecap="round"/>
<path d="M230.339 1.46263C225.039 2.75756 220.639 5.14821 220.639 6.84159C220.639 8.8338 221.239 8.73419 226.539 6.04471C233.139 2.85717 250.139 2.95678 259.639 6.24393C272.839 10.826 283.239 18.8945 290.639 30.3497C298.939 43.1994 301.239 58.639 298.239 82.7448C294.539 112.728 297.239 129.96 307.439 141.814C309.839 144.503 310.739 145.001 311.739 144.105C312.639 143.208 312.239 142.113 309.739 139.324C305.639 134.642 302.139 127.569 300.739 121.095C299.139 113.624 299.339 98.4832 301.239 84.5377C303.339 68.7993 302.739 51.1682 299.739 42.1037C291.839 17.6991 267.439 0.167691 241.639 0.466522C237.539 0.566132 232.439 0.964574 230.339 1.46263Z" fill="#151515"/>
<path d="M203.638 13.1168C189.438 22.0818 179.738 41.9042 179.638 61.9259C179.638 67.5041 179.138 71.1897 178.038 73.2815C176.038 77.1663 176.738 82.0472 180.038 86.9282C184.838 94.0005 186.238 117.409 182.538 129.462C181.438 133.147 179.838 137.231 178.938 138.427C177.938 139.921 177.838 140.817 178.638 141.315C180.438 142.411 182.238 140.12 184.738 133.546C186.838 128.167 187.138 125.677 187.138 113.923C187.138 106.551 186.838 98.2837 186.438 95.6939C185.638 91.0122 185.738 90.9126 187.938 91.6098C189.138 92.0083 191.938 94.1997 194.138 96.5904C200.338 103.165 207.938 106.153 219.738 106.751C226.938 107.049 229.638 107.548 230.038 108.643C230.338 109.341 230.038 110.137 229.338 110.337C228.738 110.536 226.238 111.233 223.938 111.831C221.538 112.528 218.838 114.122 217.538 115.716C215.638 118.106 215.438 119.302 215.938 126.573L216.438 134.841L209.738 139.323C196.638 147.89 181.938 164.226 175.038 177.873C173.338 181.16 172.238 182.355 170.938 182.056C169.938 181.857 156.338 180.562 140.638 179.167C124.938 177.773 102.038 175.781 89.7378 174.685C77.4378 173.589 67.1378 172.892 66.8378 173.091C66.6378 173.39 67.5378 178.171 68.9378 183.849C70.4378 189.527 73.3378 202.377 75.6378 212.537C77.8378 222.697 79.9378 231.762 80.2378 232.857C80.7378 234.451 80.3378 234.65 76.0378 234.152C73.3378 233.754 68.0378 233.256 64.2378 232.857L57.3378 232.26L57.9378 224.191C58.3378 219.709 59.1378 214.529 59.8378 212.736C62.3378 206.261 56.7378 202.875 42.1378 201.779L32.4378 201.082L29.3378 195.304C27.7378 192.017 25.7378 189.228 25.0378 188.929C23.3378 188.332 11.6378 194.707 11.6378 196.3C11.6378 198.193 13.0378 197.894 18.7378 195.006C21.4378 193.511 23.8378 192.515 24.0378 192.714C25.2378 194.507 28.6378 200.883 28.6378 201.58C28.6378 202.078 27.5378 202.775 26.2378 203.174C24.8378 203.472 23.5378 204.469 23.2378 205.265C22.7378 206.56 23.2378 206.76 26.8378 206.261C30.8378 205.664 31.2378 205.863 32.8378 208.652C33.7378 210.246 35.2378 211.541 36.1378 211.541C38.0378 211.541 38.0378 210.445 36.1378 207.955C33.6378 204.668 34.4378 204.269 41.9378 204.867C56.6378 205.963 61.7378 209.847 52.9378 213.135C49.2378 214.629 45.4378 215.027 36.6378 215.027C23.3378 215.027 20.0378 213.931 21.1378 209.847C21.6378 207.855 21.3378 207.457 19.9378 207.756C17.9378 208.154 17.9378 209.25 19.2378 222.398L19.9378 229.67L17.0378 229.172C10.1378 227.877 0.837793 227.379 0.237793 228.375C-0.762207 229.969 1.13779 230.566 10.8378 231.563C15.8378 232.061 20.1378 232.559 20.2378 232.758C20.3378 232.857 21.0378 237.938 21.6378 243.914C23.2378 259.354 23.2378 259.055 27.4378 261.246C33.2378 264.235 39.6378 264.832 45.8378 262.94C55.0378 260.25 55.4378 259.453 56.3378 246.903L57.1378 235.945L63.1378 236.244C66.4378 236.344 71.8378 236.742 75.2378 237.041L81.3378 237.539L84.7378 251.086C86.6378 258.557 88.6378 265.231 89.3378 265.829C89.9378 266.526 94.0378 267.323 98.3378 267.721C102.638 268.12 122.238 270.411 141.838 272.901C192.638 279.176 207.738 280.471 213.438 279.176C233.038 274.893 275.438 263.936 276.538 262.84C278.638 260.848 273.738 256.366 269.438 256.266C267.638 256.266 265.238 255.868 264.238 255.469C262.638 254.871 262.938 254.373 267.038 251.783C274.238 247.301 276.238 245.608 275.338 244.811C274.838 244.313 272.138 245.209 269.238 246.703C261.138 250.887 251.538 260.848 253.138 263.338C254.238 265.032 255.438 264.434 257.238 261.346C258.938 258.457 259.138 258.457 265.038 259.055C272.638 259.752 274.038 260.948 269.038 262.243C257.138 265.33 212.038 276.288 211.138 276.288C210.038 276.288 204.938 254.772 205.738 253.875C205.938 253.676 208.238 253.776 210.838 254.075C215.238 254.573 215.538 254.772 215.038 256.963C213.938 261.147 216.938 259.653 219.638 254.772C225.938 242.819 240.038 232.16 254.438 228.475C260.338 226.98 259.938 224.988 253.938 225.885C251.238 226.184 247.838 226.781 246.138 227.18C243.238 227.777 243.238 227.777 244.738 225.387C247.138 221.701 258.038 216.82 270.038 214.23C282.438 211.541 285.538 209.15 276.038 209.748L270.138 210.047L269.838 202.576C269.738 198.492 270.238 191.818 270.938 187.834C272.238 181.06 271.738 178.072 269.638 180.263C268.138 181.857 266.638 192.814 266.638 202.078V211.142L260.938 212.935C251.538 215.924 245.838 219.211 242.638 223.693C240.938 225.885 239.638 228.574 239.638 229.57C239.638 230.566 238.838 231.563 237.938 231.861C236.938 232.16 234.338 233.953 232.238 235.945C230.138 237.838 228.038 239.531 227.738 239.631C227.338 239.83 224.838 242.52 222.138 245.707L217.138 251.485L211.138 250.887C207.838 250.489 204.838 249.891 204.438 249.492C204.038 249.194 203.338 246.405 202.838 243.416C200.538 230.068 191.438 187.136 190.538 185.543C189.838 184.148 188.338 183.65 185.338 183.55C183.038 183.451 180.138 183.152 179.038 182.853L176.838 182.156L178.938 177.673C180.038 175.183 181.238 172.992 181.538 172.693C181.938 172.394 183.538 170.203 185.138 167.712C191.938 157.652 206.238 144.403 216.438 138.726C220.538 136.534 220.738 136.136 220.038 133.347C219.638 131.753 219.238 127.768 219.238 124.481C219.138 119.401 219.438 118.405 221.638 116.811C223.038 115.716 226.138 114.52 228.638 114.122C232.938 113.425 233.138 113.225 233.238 110.038C233.238 106.651 233.238 106.651 240.438 104.958C248.238 103.065 249.538 102.467 248.038 100.973C247.438 100.376 244.938 100.674 241.138 101.671C237.038 102.866 231.238 103.364 223.138 103.364C212.638 103.463 210.438 103.165 205.938 101.073C200.038 98.483 194.238 92.7056 191.938 87.1274C188.638 79.4574 190.638 68.5002 197.138 57.6427C201.038 51.2676 201.438 49.8731 198.938 50.3711C198.038 50.5703 195.638 53.7579 193.538 57.5431C190.438 63.2209 189.138 64.6154 186.238 65.6115L182.638 66.9065V60.7306C182.738 42.6015 194.638 20.0895 207.038 14.9098C209.138 14.0133 210.638 12.818 210.438 12.1207C209.738 10.0289 208.138 10.2281 203.638 13.1168ZM188.238 69.7952C186.838 74.5765 186.638 78.9593 187.538 83.0433C188.038 85.434 188.338 87.6254 188.038 87.9243C186.938 89.02 182.138 85.2348 180.938 82.1469C179.138 77.9632 179.938 74.6761 183.638 70.9905C186.838 67.7033 189.038 67.2053 188.238 69.7952ZM120.438 180.662C145.038 182.853 170.338 185.244 176.638 185.941L188.138 187.136L195.238 222C199.138 241.125 203.238 261.147 204.438 266.327C205.538 271.506 206.338 275.989 206.038 276.188C205.338 276.985 181.238 274.495 139.138 269.315C117.138 266.526 97.4378 264.334 95.4378 264.334C92.8378 264.334 91.6378 263.836 91.2378 262.541C88.9378 255.071 82.9378 230.766 79.6378 215.525C75.8378 197.695 72.1378 182.056 71.0378 178.371C70.3378 176.08 68.1378 175.98 120.438 180.662ZM55.0378 219.709C54.8378 221.502 54.1378 230.367 53.6378 239.432C52.6378 254.573 52.4378 255.967 50.3378 257.561C44.6378 262.043 30.1378 261.645 27.2378 257.063C26.0378 255.17 22.6378 227.777 22.6378 220.506V218.016L33.9378 218.314C40.1378 218.514 46.7378 218.215 48.6378 217.717C54.8378 215.924 55.5378 216.123 55.0378 219.709Z" fill="#151515"/>
<path d="M213.639 41.406C213.639 46.4862 218.939 54.7538 224.339 58.2402C226.939 59.834 229.839 61.1289 230.739 61.1289C234.039 61.1289 233.839 59.1367 230.339 57.6425C223.339 54.7538 218.139 48.6776 216.739 41.8045C215.839 37.5212 213.639 37.2224 213.639 41.406Z" fill="#151515"/>
<path d="M231.639 42.4024C231.839 46.6856 241.839 57.1447 249.139 60.7307C255.339 63.719 263.139 65.1136 262.439 63.1214C262.239 62.4241 259.439 61.1292 256.339 60.1331C249.139 57.9416 240.739 51.6662 237.039 45.7891C234.239 41.5059 231.639 39.8125 231.639 42.4024Z" fill="#151515"/>
<path d="M262.638 67.1057C260.438 68.5002 262.238 69.4963 267.138 69.5959C270.538 69.5959 272.238 70.2932 274.238 72.1858C277.238 75.2737 277.738 80.6527 275.338 84.0394C273.638 86.4301 267.338 91.0122 265.738 91.0122C265.138 91.0122 264.638 91.7095 264.638 92.5063C264.638 94.3989 266.038 94.3989 270.238 92.4067C278.038 88.7211 282.038 80.3539 279.238 73.68C276.938 68.1018 267.138 64.217 262.638 67.1057Z" fill="#151515"/>
<path d="M213.639 73.0825C213.639 76.8677 214.039 78.063 215.139 78.063C216.239 78.063 216.639 76.8677 216.639 73.0825C216.639 69.2973 216.239 68.1019 215.139 68.1019C214.039 68.1019 213.639 69.2973 213.639 73.0825Z" fill="#151515"/>
<path d="M227.837 72.6837C228.037 75.4727 228.637 77.5646 229.437 77.8634C230.437 78.1622 230.637 77.0665 230.437 73.4805C230.237 70.6914 229.637 68.5996 228.837 68.3008C227.837 68.002 227.637 69.0977 227.837 72.6837Z" fill="#151515"/>
<path d="M256.039 96.4906C255.639 97.2875 255.739 99.9769 256.039 102.368C256.839 107.249 256.839 107.249 247.039 108.543C240.939 109.241 238.439 110.536 240.439 111.731C241.139 112.229 245.139 112.03 249.439 111.333C262.339 109.141 265.339 109.44 268.739 113.026C271.439 115.915 271.639 116.612 271.639 124.382C271.639 131.055 271.939 132.848 273.439 134.143C274.439 135.139 275.639 135.837 276.039 135.837C278.939 135.837 295.739 150.28 301.639 157.751C317.239 177.972 328.939 217.816 325.339 238.635C324.639 242.52 324.739 243.416 326.039 243.416C327.539 243.416 329.639 236.045 329.639 230.765C329.639 225.486 326.439 206.759 324.039 197.794C318.339 176.577 306.539 156.257 292.639 143.706C284.839 136.634 282.139 132.45 281.439 125.876C281.239 124.382 280.439 123.286 279.339 123.087C277.339 122.688 277.339 123.087 279.339 131.653C279.839 133.745 279.639 133.845 277.439 132.749C275.139 131.753 274.939 131.155 274.939 124.581C274.939 114.022 271.339 108.245 263.839 107.049C260.239 106.452 260.139 106.352 259.239 100.674C258.339 95.096 257.139 93.5023 256.039 96.4906Z" fill="#151515"/>
<path d="M195.837 125.378C195.137 129.561 193.937 134.243 193.137 135.936C191.637 138.726 191.837 140.817 193.537 140.817C194.537 140.817 197.237 134.741 198.637 129.362C200.037 123.684 199.937 117.907 198.337 117.907C197.437 117.907 196.637 120.397 195.837 125.378Z" fill="#151515"/>
<path d="M287.938 123.983C288.938 131.454 296.038 143.706 298.238 141.614C298.438 141.315 297.038 138.128 295.138 134.442C293.238 130.757 291.338 125.975 291.038 123.784C290.638 121.294 289.838 119.899 288.838 119.899C287.738 119.899 287.538 120.796 287.938 123.983Z" fill="#151515"/>
<path d="M207.237 121.593C206.937 121.891 206.637 123.684 206.637 125.378C206.637 127.171 205.937 130.757 205.137 133.446C203.337 139.522 203.337 139.821 205.137 139.821C207.837 139.821 211.237 122.987 208.737 121.493C208.337 121.194 207.637 121.194 207.237 121.593Z" fill="#151515"/>
<path d="M237.438 135.538C235.038 136.136 235.138 138.825 237.538 138.825C242.838 138.825 248.638 137.431 248.638 136.235C248.638 135.239 247.338 134.841 243.938 134.94C241.238 135.04 238.338 135.239 237.438 135.538Z" fill="#151515"/>
<path d="M261.639 225.885C261.639 226.682 263.139 227.478 265.439 227.777C267.439 228.176 270.739 229.77 272.639 231.363C275.739 233.953 276.139 234.75 275.939 238.834C275.739 244.113 278.039 245.309 279.139 240.428C279.939 236.543 279.039 233.555 275.739 230.168C271.239 225.486 261.639 222.498 261.639 225.885Z" fill="#151515"/>
<path d="M229.337 249.592C224.037 256.664 223.237 258.358 224.637 259.653C225.637 260.549 226.037 260.549 226.337 259.553C226.637 258.856 228.637 256.067 230.737 253.278C234.337 248.795 235.037 246.404 232.637 246.404C232.137 246.404 230.637 247.899 229.337 249.592Z" fill="#151515"/>
<path d="M318.339 248.895C315.939 251.186 304.339 257.262 299.039 258.856C296.339 259.653 291.139 260.649 287.439 260.948C282.339 261.446 280.639 262.043 280.639 263.139C280.639 266.327 299.439 263.039 309.239 258.159C311.839 256.864 315.239 256.963 341.639 259.354C357.839 260.848 373.139 262.243 375.539 262.442C380.039 262.84 382.539 261.047 378.939 259.952C377.939 259.653 363.839 258.258 347.639 256.764C331.439 255.369 317.939 253.975 317.739 253.776C317.539 253.576 318.539 252.481 319.939 251.285C321.439 250.19 322.639 248.795 322.639 248.297C322.639 246.903 319.939 247.201 318.339 248.895Z" fill="#151515"/>
<path d="M238.638 250.987C233.738 255.071 231.038 261.346 234.138 261.346C234.938 261.346 235.638 260.948 235.638 260.45C235.638 259.852 237.438 257.362 239.638 254.872C241.838 252.282 243.438 249.791 243.138 249.293C242.338 247.998 242.138 248.098 238.638 250.987Z" fill="#151515"/>
<path d="M247.437 253.078C243.337 257.561 241.237 261.346 242.337 262.442C243.237 263.338 252.637 253.477 252.637 251.484C252.637 249.492 250.037 250.389 247.437 253.078Z" fill="#151515"/>
</svg>
